/* XPM */
static char *dbblack[] = {
/* columns rows colors chars-per-pixel */
"22 150 43 1",
"  c #242224",
". c #2C2A24",
"X c #2C2A2C",
"o c #34322C",
"O c #343234",
"+ c #3C3E34",
"@ c #3C3A3C",
"# c #444234",
"$ c #44463C",
"% c #444244",
"& c #4C4E44",
"* c #4C4A4C",
"= c #545644",
"- c #54564C",
"; c #5C5E4C",
": c #545654",
"> c #5C5E54",
", c #5C5A5C",
"< c #646254",
"1 c #6C6E5C",
"2 c #74725C",
"3 c #646264",
"4 c #6C6A6C",
"5 c #747264",
"6 c #74766C",
"7 c #7C7A6C",
"8 c #747274",
"9 c #7C7A74",
"0 c #7C7E7C",
"q c #848284",
"w c #8C8A8C",
"e c #94928C",
"r c #949294",
"t c #9C9A9C",
"y c #A4A6A4",
"u c #ACAEAC",
"i c #B4B2B4",
"p c #BCBEBC",
"a c #C4C6C4",
"s c #CCCACC",
"d c #D4D6D4",
"f c #DCDADC",
"g c #E4E2E4",
/* pixels */
"52e0@O@@@@O@@@@09$=<15",
"55e9@@@O@@@O@O@06+=<12",
"52e8@O@@@O@@@@@98$=<15",
"55e9@@@O@@@O@O@06#=>12",
"52e0@O@@@O@@@@@98@=<15",
"55e9@@@O@@@O@@+06#=<12",
"52e8@O@@qw:@O@@08@=<15",
"55e9@@@wsrd,*O@86#=>12",
"52e0@O@p8@sr3@@08$&<15",
"55e9@@@,sai0:@@89#=<12",
"52e8@O@ruys0,O@06@=<15",
"55e9@@@g3*ry4@@98#=>12",
"52e0@@@s4OpuqO@06$=<15",
"55e9@O@4dgay:@@88#=>12",
"52e8@@*3wtu,@O@06@=<15",
"55e9@O@O@@@@@@O08#=>12",
"52e0@@@@@@@O@O@07@=<15",
"55e9@O@O@O@@@@@98#=>12",
"52e8@@@@@@@O@O@06@=<15",
"55e8@O@@@@@@@@@88#=<12",
"52e0@@@wwww3%+@06$&<15",
"55e9@@@qwwat8@O08#=<12",
"52e8@O*%@4sr:O@06$=<15",
"55e9@@@O@iyr@@@88#=>12",
"52e0@O@@,aw*@O@06@=<15",
"55e9@@@@ruw@O@@89#=>12",
"52e9@O@Oat8@@@@98@=<15",
"55e8@@@@gt*@O@O06#=<12",
"52e0@O@:qqO@@@@08@=<15",
"55e9@@@O@@@O@O@96#=>12",
"52e9@O@@@O@@@@@08$&<15",
"55e9@@O@@@O@O@@88#=<12",
"52e0O@@@O@@@@O@06$=<15",
"55e8@@O@@@O@@@@88#=>12",
"52e0O@@@qw4@@O@06@=<15",
"55e9@@Otpwd4:@@89#=<12",
"52e0@O@g%@wr3@@98@=<15",
"55e9@@4aagt3,@O06#=>12",
"52e8@@3fuqar,@@08@=<15",
"55e9@@,p8@qu8O@88#=<12",
"52e0O@@d,%iuw@@06$=;15",
"55e9@@@8dgat:O@06$=<12",
"52e8@@%3qyu,@@@98+=<15",
"55e9@@@@O@@@+@@06$=<12",
"52e0O@O@@@@O@@@88#=>15",
"55e8@@@@O@@@@O@06$=<12",
"52e0@@O@@O@O@@@98#=;15",
"55e9@O@@@@@@@O@08#*<12",
"52e8@@@:www:%@@88#=>15",
"55e9@O@wpruw:@@06$=<12",
"52e0@@@i0*,3%O@98+=;15",
"55e9@O@ssgr@@@@06$=<12",
"52e8@@@rt0pw:@@98#=<15",
"55e9@O@@@@wu8@@88#*<12",
"52e0@@Of,%iyq+@08#=;15",
"55e9@@@4sgat*@O06$=>12",
"52e8@@*3wyu,@@@06$=<15",
"55e9@O@@O@@@O@O08#=>12",
"52e0@@O@@@O@@@@06@=<15",
"55e9@@@@O@@@O@@88#=<12",
"52e8@@O@@@O@@O@06$=;15",
"55e9@O@@O@@@@@O08#=<12",
"52e0@@@@@%q@O@@06@=<15",
"55e9@O@O@ii:@@O08#=>12",
"52e8@@@@qga8@@@88$=<15",
"55e9@O@:gqa8@@@06#=>12",
"52e0@@@pw4p3:O@98@=<15",
"55e9@@3gpadt4@@06#=>12",
"52e8@@:rtudy3@@98@=<15",
"55e9@@:88tdy%O@06#=<12",
"52e0@O@@*8r4@@@98@=<15",
"55e9@@@O@@@@@O@06#=>12",
"52e8@O@@@O@O@@@98@=<15",
"55e9@@@O@@@@@O@06#=<12",
"52e0@O@@@O@O@@@98@=<15",
"55e9@@@O@@@@@O@06#=>12",
"52e8@O@@qw:O@@@98$=<15",
"55e9@@@rprd,*O@06#=>12",
"52e0@O@y:@aw3@@98@=<15",
"55e9@@%*:tp0:@O06#=>12",
"52e8@O@O:wd0,@@08@=<15",
"55e9@@@:O@wu4O@87#=<12",
"52e0@O@d4%puq@@08@=<15",
"55e9@@@4dgay:@@98#=>12",
"52e8@@*3wyu,@O@06@=<15",
"55e9@O@@O@@O@@@88#=>12",
"52e0@@O@@@@@O@@98$=<15",
"55e9@@@@O@O@@@O06+=<12",
"52e8@@O@@@@@O@@08$&<15",
"55e9@O@@O@@@@O@87#=<12",
"52e0@@@%rw:O@@@08@=<15",
"55e9@O@dtrf3%@@98#=>12",
"52e8@@:u0%yu4O@06$=<15",
"55e9@@*%@%ay0@@88#=>12",
"52e8@O@@%aat*@@98@=<15",
"55e9@@@%syq3@O@06#=>12",
"52e0@O@pqO@@@@@88$&<15",
"55e9@@,ggggy,@@06#=<12",
"52e8@%:0yyuy,@@99@=<15",
"55e9@@@@O@O@@O@88#=>12",
"52e0O@O@@@@O@@@06$=<15",
"55e9@@@@O@@@@O@08+=<12",
"52e0@O@O@@@O@@O06$=;15",
"55e9@@@@@O@@@@@06$=<12",
"52e8@O@O@q@O@O@98+=<15",
"55e9@@@@qg:@@@@06$=>12",
"52e0@O@0yg8@@O@88#=<15",
"55e9@@%%@g0@@@@06@=<12",
"52e8@@@@Og0O@O@98#=;15",
"55e9@O@O@g8@@@@06$=<12",
"52e0@@@@Ogq@@O@98#=<15",
"55e9@O@@@gt@@@@88#*<12",
"52e8@@@O:w0O@O@08#=;15",
"55e9@@@@@@@@@@+06$=>12",
"52e8@O@O@O@O@O@06@=<15",
"55e9@@@@@@@@@@O08#=<12",
"52e0@+@O@O@O@+@06$=<15",
"55e9@@@@@@@@@@@98#=<12",
"52e0@+@O@O@O@+@06$=<15",
"-,:@%@%@%%%@%@%@:*@=>1",
"@O@OO@OO@@@OO@OO@OO-=>",
"@OO@OO@OOOO@OO@OO@O&&;",
"@@O@O@O@OOO@O@O@O@O.+=",
"+@OO@OO@OOOO@OO@OOO.+=",
"@OO@OO@OOOO@OO@OO@O.o&",
"@O@O@O@O@@@OO@OO@OO..&",
"@OO@OO@OOOO@@OO@O@O..&",
"+@OO@OO@OOOOOO@OOOO..&",
"@OO@OOOXOOOXOOO@O@O..&",
"@OOXXO@%%%%%@OXXOOO..%",
"OXXOO@*:,,,:*@OXXXX..&",
"XXXXO%:34443:%OOXX  .&",
"XXXXO*,48884,*OXX   .&",
"XXXO@*,80008,*@OX   .&",
"XXOO@:3800083:@OOXX .&",
"XXOO%*3888883:%+OXX .&",
"oO@%*,3488843:*%@OO .&",
"@@%*:334444433:**@@ .&",
"%*:,,333333333,,:*% o=",
"::,:,:,,:::,,:,,,:: o=",
":*:*::*:***:*:*:*:* o-",
"&*%*%*%*%%%*%**%*%% o-",
"%%$@%@%@%%%@%@@%@%@ o-",
"@+@@O@@O@@@@O@@@+@O o;",
"OOOoOoooooooooooOoO +;",
">#o.................$>",
"1>#o ........... . .$>",
"2<=$+++++++++++++++$=<",
"51<;-;-;---;-;-;-;;;<1",
"5521111111111111111125"
};
