/* XPM */
static char *dbwhite[] = {
/* columns rows colors chars-per-pixel */
"22 150 96 2",
"   c #1C1A14",
".  c #1C1A1C",
"X  c #24221C",
"o  c #242624",
"O  c #2C2A24",
"+  c #34322C",
"@  c #3C3A34",
"#  c #3C3A3C",
"$  c #444234",
"%  c #44463C",
"&  c #444244",
"*  c #4C4E44",
"=  c #4C4A4C",
"-  c #544E44",
";  c #545644",
":  c #54524C",
">  c #5C5E4C",
",  c #545654",
"<  c #5C5E54",
"1  c #5C5A5C",
"2  c #646254",
"3  c #6C665C",
"4  c #6C6E5C",
"5  c #74725C",
"6  c #646264",
"7  c #6C6A6C",
"8  c #747664",
"9  c #7C7E6C",
"0  c #747274",
"q  c #7C7E74",
"w  c #7C7E7C",
"e  c #848674",
"r  c #84867C",
"t  c #8C8A7C",
"y  c #848684",
"u  c #8C8E84",
"i  c #8C8A8C",
"p  c #949284",
"a  c #9C9684",
"s  c #94928C",
"d  c #9C968C",
"f  c #949694",
"g  c #9C9E9C",
"h  c #A49E8C",
"j  c #A49E94",
"k  c #A4A68C",
"l  c #A4A694",
"z  c #ACA694",
"x  c #ACAE94",
"c  c #ACA69C",
"v  c #ACAE9C",
"b  c #B4AE94",
"n  c #B4AE9C",
"m  c #B4B69C",
"M  c #A4A2A4",
"N  c #ACAAAC",
"B  c #B4B2A4",
"V  c #BCB6A4",
"C  c #BCBAA4",
"Z  c #BCBAAC",
"A  c #B4B2B4",
"S  c #BCBABC",
"D  c #C4BAA4",
"F  c #C4BAAC",
"G  c #C4C2A4",
"H  c #C4C2AC",
"J  c #CCC6AC",
"K  c #C4C2B4",
"L  c #CCC6B4",
"P  c #CCCAB4",
"I  c #CCCEBC",
"U  c #D4CEB4",
"Y  c #D4D2B4",
"T  c #D4D2BC",
"R  c #DCD6BC",
"E  c #DCDABC",
"W  c #E4DEBC",
"Q  c #E4E2BC",
"!  c #C4C2C4",
"~  c #CCCACC",
"^  c #D4D6C4",
"/  c #DCD2C4",
"(  c #DCDAC4",
")  c #DCDECC",
"_  c #D4D2D4",
"`  c #DCDADC",
"'  c #E4DEC4",
"]  c #E4DACC",
"[  c #E4E6C4",
"{  c #E4E6CC",
"}  c #ECEACC",
"|  c #E4E2D4",
" . c #ECEAD4",
".. c #ECEEDC",
"X. c #E4E6E4",
"o. c #ECEAEC",
/* pixels */
"8 5 s 0 # # # # # # # # # # # q 0 % ; 2 4 8 ",
"8 8 s q # @ # @ # @ # @ # @ # w 0 @ ; 2 4 5 ",
"8 8 u w # # # # # # # # # # # 0 0 $ ; 2 4 8 ",
"8 5 s q # # @ # @ # # @ # # # w 9 # ; 2 4 5 ",
"8 8 i w @ # # # # @ # # # @ # 0 0 $ ; < 4 8 ",
"8 5 s q # # @ # # # # @ # # # w 0 # ; 2 4 5 ",
"8 8 p w # # # # y i , # # @ # w 8 % ; > 4 8 ",
"8 8 s 0 # @ # i ~ g _ , = # # w 9 # ; 2 4 5 ",
"8 8 p w # # # S 0 # ~ f 6 # # 0 0 $ ; < 4 8 ",
"8 5 s q # # @ 1 ~ ! A w , # # w 0 @ : 2 4 5 ",
"8 8 s 0 # # # f N M ~ w 1 @ # w 8 % ; > 4 8 ",
"8 5 s w # @ # o.6 = f M 7 # # 0 0 $ ; < 4 5 ",
"8 8 s 0 # # # ~ 6 # S N y # @ w 0 % ; 2 4 8 ",
"8 5 s w @ # # 0 _ | ! M , # # 0 0 @ ; < 4 5 ",
"8 8 s 0 # # & 6 y M N 1 # # # w 9 % ; 2 4 8 ",
"8 8 p w # # # # # # # @ # @ # 0 0 @ ; 2 4 5 ",
"8 8 s 0 # @ # @ # @ # # # # # w 0 % ; 2 4 8 ",
"8 8 p w # # # # # # @ # @ # @ w 8 # ; 2 4 5 ",
"8 5 i w @ # @ # @ # # # # # # w 0 $ ; > 4 8 ",
"8 8 p w # # # # # # # # # @ # w 9 # ; < 4 5 ",
"8 5 i w @ # # i i i i 6 & # # 0 0 $ ; 2 4 8 ",
"8 8 p w # # @ i i i ! f 0 # @ w 0 @ : 2 4 5 ",
"8 5 i w @ # = & # 7 ~ f , # # 0 0 $ ; > 4 8 ",
"8 8 p w # # @ # # A M f # @ # w 0 # ; 2 4 5 ",
"8 5 i w @ # # # 1 ! i = # # # w 8 % ; 2 4 8 ",
"8 8 p w # # @ # f N i @ # @ # w 0 @ ; < 4 5 ",
"8 5 i w @ # # # ! g 0 # # # # w 8 % ; 2 4 8 ",
"8 8 p w # @ # @ X.g = # @ # @ w 0 @ ; 2 4 5 ",
"8 5 s 0 # # # , i w # @ # # # w 9 # ; 2 4 8 ",
"8 8 s q # @ # @ # # # # # @ # 0 0 $ ; < 4 5 ",
"8 8 u w # # # # # @ # @ # # # w 9 # ; 2 4 8 ",
"8 8 p w @ # @ # # # # # # @ # 0 0 $ ; 2 4 5 ",
"8 8 u w # # # # @ # # @ # # # w 0 % ; > 4 8 ",
"8 8 s q # @ # # # # @ # # @ # w 8 # ; < 4 5 ",
"8 5 s 0 # # # # y i 7 # # # @ w 0 % ; 2 4 8 ",
"8 8 s q # # @ g S i _ 7 , # # 0 9 @ ; 2 4 5 ",
"8 5 i w @ # # X.& # i i 7 @ # w 0 # ; 2 4 8 ",
"8 5 s q # # 6 ~ ! X.M 6 1 # # 0 0 $ ; < 4 5 ",
"8 8 s 0 # # 7 _ N y S f 1 @ # w 9 # ; 2 4 8 ",
"8 5 s w # @ 1 S 0 # y N 0 # # 0 0 $ ; < 4 5 ",
"8 8 s 0 # # # _ 1 & S M i @ # w 9 # ; 2 4 8 ",
"8 5 s w @ # & 0 _ X.! M , # # 0 0 $ ; 2 4 5 ",
"8 8 s 0 # # & 6 y M N 1 @ # @ w 0 # ; 2 4 8 ",
"8 8 p w # # # # # # @ # # # # 0 0 $ ; < 4 5 ",
"8 8 s 0 # @ # @ # @ # # # @ # 0 0 $ ; 2 4 8 ",
"8 8 p w # # # # # # # @ # # # w 0 # ; 2 4 5 ",
"8 5 i w @ # @ # # @ # # # @ # w 8 % ; > 4 8 ",
"8 8 p w # # # # # # # @ # # # w 9 # ; < 4 5 ",
"8 5 i w @ # # , i i i 1 & # # 0 0 $ ; 2 4 8 ",
"8 8 p w # # @ i S f N y , # @ w 0 @ ; 2 4 5 ",
"8 5 i w @ # # A w = 1 6 & # # w 9 # ; 2 4 8 ",
"8 8 p w # # @ ~ ~ X.f # & @ # 0 0 $ ; 2 4 5 ",
"8 5 i w @ # # f g y S i , # # w 0 % ; > 4 8 ",
"8 8 p w # @ # # # # i N 0 # @ w 8 # ; < 4 5 ",
"8 5 s 0 # # # ` 1 & A M w # # w 0 % ; 2 4 8 ",
"8 8 s q # @ # 6 _ | ! g = # # 0 0 @ ; 2 4 5 ",
"8 8 p w # # = 7 y M N 1 # @ # w 9 # ; 2 4 8 ",
"8 5 s q # @ # # # # # @ # # # 0 0 $ ; 2 4 5 ",
"8 8 s 0 # # # @ # @ # # # @ # w 9 # ; < 4 8 ",
"8 5 s w # @ # # # # # @ # # # 0 0 $ ; 2 4 5 ",
"8 8 s 0 # # # # @ # @ # # # @ w 0 $ : > 4 8 ",
"8 5 s w @ # @ # # # # # @ # # w 9 @ ; 2 4 5 ",
"8 8 s 0 # # # # # & y # # # # 0 0 # ; 2 4 8 ",
"8 8 p w # @ # @ # A A , # # @ w 0 $ ; < 4 5 ",
"8 5 s 0 # # # # y X.S 0 # # # w 8 # ; 2 4 8 ",
"8 8 s 0 # @ # , X.i ! 0 # # # w 0 $ ; 2 4 5 ",
"8 8 p w # # # S i 6 S 6 , @ # q 0 @ ; 2 4 8 ",
"8 5 s q # # 6 X.S ! _ g 7 # # 0 0 $ : > 4 8 ",
"8 8 s 0 # # , f g N _ M 7 @ # w 0 $ ; < 4 8 ",
"8 5 s w # # , 0 0 g _ M & # # 0 0 $ ; 2 4 5 ",
"8 8 s 0 # @ # # = 0 f 7 @ # @ w 0 % ; > 4 8 ",
"8 8 p w # # # @ # # # # # # # 0 0 # ; 2 4 5 ",
"8 8 u w @ # @ # # # @ # # @ # w 8 % ; 2 4 8 ",
"8 5 s w # # # # @ # # # @ # # w 0 @ ; < 4 5 ",
"8 8 s 0 # @ # @ # # @ # # # # w 8 % ; 2 4 8 ",
"8 5 s w # # # # # # # # @ # @ w 0 @ ; 2 4 5 ",
"8 8 u w # @ # # y i , # # # # w 9 # ; 2 4 8 ",
"8 8 s q # # # f S f _ , = # @ w 0 $ ; < 4 5 ",
"8 8 u w @ # @ M , # S f 6 # # w 0 @ ; 2 4 8 ",
"8 5 s w # # & = , M S 0 , # # w 8 % : 2 4 5 ",
"8 8 u w # @ # # = i _ w 1 # # 0 0 $ ; > 4 8 ",
"8 8 s q # # # , # # i M 7 # # w 0 # ; < 4 5 ",
"8 8 u w @ # # _ 7 & S N y @ # w 8 % ; 2 4 8 ",
"8 5 s w # # @ 7 _ ` ! M , # # w 0 @ ; 2 4 5 ",
"8 8 u w @ # = 6 i M N 1 @ # # w 8 % ; 2 4 8 ",
"8 8 s q # # # # # # @ # # # @ w 0 @ ; < 4 5 ",
"8 8 u w # # @ # @ # # # @ # # w 0 $ ; 2 4 8 ",
"8 5 s q # # # # # @ # # # # @ w 8 # : 2 4 5 ",
"8 8 s w @ # # @ # # # # @ # # w 0 $ ; > 4 8 ",
"8 5 s 0 # # # # # # # @ # # @ w 0 # ; 2 4 5 ",
"8 8 p w # @ # & i i , # # # # w 8 % ; < 4 8 ",
"8 8 s 0 # # # _ g f ` 6 & # @ w 0 @ ; 2 4 5 ",
"8 8 p w # # = N w & M M 7 # # w 9 % ; > 4 8 ",
"8 5 s q # # = = # & ! M w # # 0 0 @ ; 2 4 5 ",
"8 8 s 0 # # # # & ! ! g = # # w 0 % ; 2 4 8 ",
"8 5 s w # @ # & ~ M y 6 # @ # w 8 # ; 2 4 5 ",
"8 8 s 0 # # # S y # # # # # @ w 0 $ : > 4 8 ",
"8 5 s w @ # 1 X.| X.X.M 6 # # w 9 @ ; < 4 5 ",
"8 8 s 0 # & , y g M N g 1 @ # 0 0 % ; 2 4 8 ",
"8 8 p w # @ # # # # # # # # # w 0 @ ; 2 4 5 ",
"8 5 s 0 # # # @ # @ # @ # @ # w 8 % * 2 4 8 ",
"8 8 s 0 # @ # # # # # # # # # 0 0 $ ; 2 4 5 ",
"8 8 p w # # # # @ # @ # @ # @ w 0 $ ; 2 4 8 ",
"8 5 s q # @ # # # # # # # # # 0 0 $ : > 4 8 ",
"8 8 s 0 # # # @ # y @ # # @ # w 0 @ ; 2 4 8 ",
"8 5 s w # @ # # y X., # @ # # w 8 % ; < 4 5 ",
"8 8 s 0 # # # w M X.0 # # # @ w 0 # ; 2 4 8 ",
"8 5 s w @ # & & # ` y # @ # # w 8 % ; 2 4 5 ",
"8 8 s 0 # # # # # X.w # # # @ w 0 # ; > 4 8 ",
"8 8 p w # @ # @ # X.0 # # # # w 8 % ; < 4 5 ",
"8 5 s q # # # # # X.y # # @ # 0 0 % ; 2 4 8 ",
"8 8 s 0 # @ # # # | g # # # # w 0 @ ; < 4 5 ",
"8 8 p w # # # @ , i w @ # @ # w 8 % ; 2 4 8 ",
"8 5 s q # # # # # # # # # # # 0 0 $ * 2 4 5 ",
"8 8 s 0 # @ # @ # @ # @ # @ # 0 0 % ; 2 4 8 ",
"8 5 s w # # # # # # # # # # # w 0 @ ; 2 4 5 ",
"8 8 s q # @ # @ # @ # @ # @ # w 8 % ; 2 4 8 ",
"8 8 p w # # # # # # # # # # # q 0 $ ; 2 4 5 ",
"8 8 p w # # # # # # # # # # # q 0 $ ; 2 4 5 ",
"8 p M w w q w 0 w w 0 0 w 0 w 0 M f : : > 4 ",
"8 .. . . . . . . . . . . . . . . . .9 : ; < ",
"t  .} } } } } } } } } } } } } } } [ 9 * * > ",
"r } { [ Q [ [ [ [ [ [ [ [ Q [ [ [ Y 9 O @ ; ",
"r } { [ Q [ [ [ [ [ [ [ [ Q [ [ [ Y 9 O @ ; ",
"e { [ [ [ [ [ [ Q Q Q Q [ [ [ [ Q Y 9 O + * ",
"e  .{ Q [ Q [ Q [ [ [ [ [ Q [ [ [ Y 9 O O * ",
"e } } Q [ [ [ [ [ [ [ [ [ [ [ [ Q Y 9 O O * ",
"e { } [ [ Q [ Q [ [ [ [ Q [ Q [ [ Y 9 O O * ",
"e } [ [ [ [ [ [ [ [ [ [ [ [ [ [ Q Y 9 O O * ",
"r { { Q Q Q W ' W W W W ' ' W Q [ Y 9 O O & ",
"e { [ Y U R E ' ) ) ) ) ' ' E Y U G 9 O O * ",
"e U H D J R E ' ] ] ] ] ] ' R R J b 3 X O * ",
"r D m m H R / ] | | | | { ] / R H k > . O * ",
"e v l z F R / ] | | | | ] ] / T D a : . O * ",
"e c h l Z R / | ] ] ] ] | ] / R F d - . O * ",
"e j j z F / ( ] | | | | | ) ( R F a ; . O * ",
"e c l n J / ( ( ] ] ] ] ) ' / ^ H h :   O * ",
"r B n V P T ^ ^ ^ ^ ^ ^ / R / T J l < . O * ",
"e Z Z F K U I U I I I I I I I U K B 2 X + ; ",
"e L K H K K H K H H H H K H K J K m 4 o + ; ",
"r K H Z C C Z C Z Z Z Z C Z C Z C v 3 X + : ",
"r K H Z C C Z C Z Z Z Z C Z C Z C v 3 X + : ",
"r K H Z C C Z C Z Z Z Z C Z C Z C v 3 X + : ",
"r H Z m B m m B m m m m m B m m B l 2 o + > ",
"e j j x v x v x x x x x v x x v j j < X @ > ",
"4 + + + + + + + + + + + + + + + + + + + @ > ",
"4 < $ + o O O O O O O O O O O O o O o O % < ",
"5 2 ; % @ @ @ @ @ @ @ @ @ @ @ @ @ @ @ % ; 2 ",
"8 4 2 > : > : > : : > > : > : > : > > > 2 4 ",
"8 8 5 4 4 4 4 4 4 4 4 4 4 4 4 4 4 4 4 4 5 8 "
};
