<?xml version="1.0" encoding="UTF-8" standalone="no"?>
<!-- Created with Inkscape (http://www.inkscape.org/) -->
<svg
   xmlns:svg="http://www.w3.org/2000/svg"
   xmlns="http://www.w3.org/2000/svg"
   version="1.0"
   width="500"
   height="500"
   id="svg2">
  <defs
     id="defs4" />
  <g
     transform="translate(-99.675,-269.175)"
     id="layer1">
    <path
       d="M 201.14375,277.63721 C 187.17768,277.63721 175.6234,285.87809 168.20625,294.98096 C 160.7891,304.08383 155.67884,314.84246 151.20625,326.91846 C 142.26107,351.07046 136.34872,380.86305 131.95625,410.51221 C 123.17131,469.81053 121.05,528.41846 121.05,528.41846 L 161.2375,529.91846 C 161.2375,529.91846 163.37958,472.80317 171.7375,416.38721 C 175.91646,388.17923 181.79875,360.12807 188.925,340.88721 C 192.48812,331.26678 196.46715,323.94059 199.3625,320.38721 C 200.76491,318.66607 201.46542,318.06859 201.70625,317.85596 C 208.24978,317.90253 208.11837,318.63281 210.2375,321.94971 C 212.43032,325.38195 214.72168,333.40785 215.83125,342.91846 C 216.94082,352.42907 217.08314,362.84772 218.6125,373.04346 C 219.37718,378.14133 220.19149,383.29301 223.70625,389.57471 C 227.22101,395.85641 237.18393,403.54346 246.8625,403.54346 C 256.30179,403.54346 263.98614,398.35299 268.39375,393.66846 C 272.80136,388.98393 275.43626,384.26413 277.83125,379.41846 C 282.62122,369.72712 286.13969,359.11666 289.925,349.13721 C 292.4433,342.49806 295.04051,336.71715 297.55,331.73096 C 300.19413,342.00909 302.98312,355.4233 305.7375,372.16846 C 312.35093,412.37461 318.85334,466.94999 325.83125,521.69971 C 332.80916,576.44943 340.23926,631.31552 349.01875,673.51221 C 353.40849,694.61056 357.997,712.43362 363.8,726.57471 C 366.7015,733.64525 369.79014,739.87415 374.55,745.63721 C 379.30986,751.40027 387.40301,757.82471 398.26875,757.82471 C 416.18794,757.8247 431.66438,747.04733 439.64375,734.98096 C 447.62312,722.91459 451.04713,709.93447 453.89375,698.16846 C 455.06526,693.32623 456.06335,688.88253 457.05,684.63721 C 458.71788,689.79022 460.44998,695.56641 462.20625,701.57471 C 465.63354,713.29964 469.09272,725.57104 474.9875,736.82471 C 477.93489,742.45154 481.50374,748.04895 487.425,752.94971 C 493.34626,757.85047 502.68921,761.47641 511.70625,760.57471 C 527.37353,759.00797 533.18917,748.41463 537.675,740.13721 C 542.16083,731.85979 545.47516,722.38624 548.64375,711.51221 C 554.98093,689.76415 560.19571,662.6076 564.55,635.57471 C 573.25858,581.50893 578.3,528.19971 578.3,528.19971 L 538.26875,524.41846 C 538.26875,524.41846 533.29678,576.80567 524.8625,629.16846 C 520.64536,655.34986 515.49853,681.59509 510.05,700.29346 C 509.05158,703.71985 508.05089,706.54292 507.05,709.38721 C 505.00815,703.84949 502.90037,697.47893 500.8,690.29346 C 497.44157,678.80411 494.15548,666.60629 488.9875,655.41846 C 486.40351,649.82455 483.4002,644.31856 478.33125,639.13721 C 473.2623,633.95586 464.78095,629.07471 455.425,629.07471 C 446.44127,629.07471 437.39582,634.03524 432.45625,639.57471 C 427.51668,645.11418 425.13878,650.74803 423.175,656.19971 C 419.24744,667.10307 417.34178,678.35412 414.83125,688.73096 C 412.32072,699.1078 409.11527,708.25268 406.1125,712.79346 C 404.8669,714.67704 404.15097,715.71595 403.39375,716.41846 C 402.6496,715.01656 401.84652,713.41803 400.9875,711.32471 C 396.98023,701.55955 392.49954,685.20851 388.3625,665.32471 C 380.08841,625.55712 372.65692,571.14196 365.70625,516.60596 C 358.75558,462.06996 352.26246,407.39535 345.39375,365.63721 C 341.95939,344.75814 338.51288,327.2355 334.45625,313.63721 C 332.42793,306.83806 330.41418,301.061 327.1125,295.38721 C 325.46166,292.55031 323.49777,289.62156 320.05,286.63721 C 316.60223,283.65286 310.79408,280.48096 303.9875,280.48096 C 287.29854,280.48096 275.07129,291.81662 267.9875,302.26221 C 262.06931,310.98903 258.11476,320.35368 254.55,329.48096 C 252.98365,319.96901 250.25825,309.9129 244.1125,300.29346 C 236.03746,287.65427 219.58423,277.63721 201.14375,277.63721 z M 501.2375,722.44971 C 500.86159,722.8023 500.82785,722.7709 501.2375,722.44971 z "
       style="fill:#08c4ff;fill-opacity:1;fill-rule:evenodd;stroke:black;stroke-width:11.89999962;stroke-linecap:butt;stroke-linejoin:miter;stroke-miterlimit:4;stroke-dasharray:none;stroke-opacity:1"
       id="path1876" />
  </g>
</svg>
